<?xml version="1.0" standalone="no"?>
<!DOCTYPE svg PUBLIC "-//W3C//DTD SVG 20010904//EN"
 "http://www.w3.org/TR/2001/REC-SVG-20010904/DTD/svg10.dtd">
<svg version="1.0" xmlns="http://www.w3.org/2000/svg"
 width="1024.000000pt" height="1024.000000pt" viewBox="0 0 1024.000000 1024.000000"
 preserveAspectRatio="xMidYMid meet">

<g transform="translate(0.000000,1024.000000) scale(0.100000,-0.100000)"
fill="#000000" stroke="none">
<path d="M6999 9627 c-65 -44 -53 -86 51 -171 82 -68 110 -106 110 -149 0 -33
-41 -127 -149 -337 l-89 -175 -46 3 c-62 5 -96 -27 -96 -92 0 -39 4 -48 37
-74 29 -23 35 -33 26 -43 -11 -14 -83 -153 -305 -589 -72 -140 -134 -259 -138
-264 -5 -5 -23 0 -42 12 -18 11 -50 25 -71 30 -35 10 -40 8 -71 -21 -25 -24
-35 -44 -40 -80 -9 -58 -3 -67 73 -106 54 -27 104 -53 326 -171 55 -29 143
-75 195 -103 52 -27 144 -76 204 -108 60 -33 111 -59 113 -59 1 0 95 -49 208
-110 113 -60 207 -110 209 -110 4 0 349 -185 432 -231 22 -12 47 -20 56 -17
14 6 88 129 88 147 0 14 -107 72 -615 336 -179 93 -302 158 -330 175 -16 10
-106 57 -199 104 -94 47 -174 90 -178 94 -8 8 69 166 237 487 34 66 94 183
134 260 93 183 86 173 108 153 10 -8 89 -52 177 -97 87 -45 216 -113 287 -151
71 -39 131 -70 133 -70 3 0 81 -41 173 -91 92 -51 206 -111 253 -135 92 -48
344 -182 374 -200 18 -11 16 -17 -31 -110 -82 -162 -264 -518 -352 -688 -60
-116 -81 -165 -77 -182 7 -28 117 -88 145 -79 12 3 102 174 257 481 131 262
243 478 249 480 6 3 46 -16 90 -41 91 -51 125 -56 160 -20 37 36 34 86 -7 120
-18 15 -170 101 -338 192 -168 91 -309 168 -315 173 -5 4 -68 38 -139 75 -71
37 -171 91 -223 121 -52 30 -122 68 -156 84 -34 16 -89 45 -122 63 -104 58
-166 92 -305 167 -74 39 -137 74 -140 77 -2 2 4 19 14 36 10 18 66 124 123
237 91 177 111 209 148 237 69 51 115 133 115 205 0 40 -64 157 -101 187 -44
35 -138 70 -185 71 -56 0 -128 -23 -169 -54 -18 -14 -36 -26 -39 -26 -3 0 -37
30 -75 68 -38 37 -83 75 -99 84 -29 17 -31 17 -63 -5z m512 -228 c101 -72 61
-219 -60 -219 -76 0 -134 77 -112 150 24 80 109 114 172 69z"/>
<path d="M4833 9589 c-51 -4 -165 -22 -255 -38 -405 -75 -756 -213 -1086 -424
-164 -105 -194 -128 -338 -247 -222 -184 -524 -506 -508 -542 3 -7 23 -28 44
-46 l38 -33 79 98 c74 93 261 288 348 364 312 270 688 490 998 584 42 13 81
26 85 29 5 3 71 21 147 41 616 157 1309 110 1888 -129 91 -38 311 -149 377
-191 22 -14 43 -25 47 -25 11 1 41 43 53 74 8 22 5 29 -23 50 -32 25 -299 163
-394 204 -123 53 -331 123 -474 158 -98 24 -343 63 -460 74 -132 11 -432 11
-566 -1z"/>
<path d="M7599 8919 c-16 -17 -29 -36 -29 -43 0 -21 91 -159 156 -236 123
-147 274 -280 319 -280 17 0 28 11 43 42 11 24 18 47 15 53 -2 6 -42 42 -89
81 -92 75 -206 201 -274 304 -80 121 -94 129 -141 79z"/>
<path d="M4305 8881 c-112 -42 -123 -46 -255 -109 -262 -124 -524 -314 -737
-536 -84 -86 -133 -144 -246 -286 -7 -8 -20 -27 -29 -42 -17 -26 -17 -28 5
-48 31 -30 80 -55 84 -43 7 20 99 141 175 229 144 169 358 356 548 480 73 48
302 167 365 189 28 10 55 22 60 26 6 4 56 21 113 38 56 18 102 34 102 37 0 3
-7 27 -16 55 -20 61 -30 62 -169 10z"/>
<path d="M1821 8739 c-157 -31 -250 -213 -191 -372 25 -66 68 -108 143 -141
70 -31 129 -33 185 -6 46 22 51 39 27 87 -15 30 -16 30 -61 21 -64 -14 -125 5
-165 50 -29 33 -31 39 -27 98 4 68 25 101 80 130 62 32 155 8 193 -50 15 -23
22 -89 13 -124 -4 -18 15 -31 222 -152 96 -56 200 -117 230 -135 30 -18 92
-52 138 -76 l83 -44 30 35 c16 19 28 41 27 50 -3 13 -85 63 -323 194 -55 31
-127 74 -160 96 -33 22 -75 50 -92 61 -26 17 -33 28 -33 53 0 84 -104 206
-187 220 -77 13 -89 14 -132 5z"/>
<path d="M4495 8429 c-44 -16 -113 -45 -153 -64 -39 -19 -74 -35 -77 -35 -3 0
-38 -19 -78 -41 -40 -23 -98 -57 -130 -75 -79 -45 -288 -217 -367 -302 -126
-135 -250 -296 -250 -324 1 -17 91 -83 99 -72 3 5 19 29 35 54 218 338 614
637 991 750 101 30 100 28 85 89 -11 48 -14 51 -43 50 -18 0 -68 -14 -112 -30z"/>
<path d="M7242 8197 c-13 -23 -61 -114 -107 -202 -45 -88 -110 -214 -144 -279
-34 -65 -58 -122 -54 -126 12 -12 521 -270 531 -270 5 0 16 17 25 38 9 20 37
75 62 122 26 47 83 155 127 240 44 85 92 175 106 199 30 51 47 35 -143 135
-204 107 -361 186 -371 186 -5 0 -20 -19 -32 -43z"/>
<path d="M8722 7995 c-22 -48 -15 -64 36 -85 26 -11 54 -24 62 -30 8 -5 41
-23 74 -40 43 -23 61 -28 71 -20 18 15 35 64 26 77 -10 16 -219 123 -240 123
-10 0 -23 -11 -29 -25z"/>
<path d="M7902 7838 c-28 -50 -160 -303 -260 -501 -26 -51 -41 -91 -36 -96 5
-5 104 -57 219 -116 116 -59 215 -111 220 -115 6 -4 31 -17 57 -28 l46 -20 35
56 c18 32 47 84 64 117 17 33 68 132 114 220 106 206 119 232 119 244 0 6 -17
19 -37 29 -58 28 -349 180 -429 223 -39 22 -74 39 -77 39 -3 0 -19 -24 -35
-52z"/>
<path d="M2350 7813 c-31 -67 -167 -405 -215 -533 -22 -58 -83 -268 -99 -342
l-6 -28 58 0 c58 0 58 0 71 37 8 20 26 82 41 137 27 97 39 130 128 366 57 150
82 211 98 240 21 37 54 120 54 135 0 15 -38 42 -73 50 -24 6 -28 2 -57 -62z"/>
<path d="M5030 7660 c-174 -19 -359 -85 -516 -185 -82 -52 -252 -225 -309
-314 -131 -207 -187 -396 -186 -636 0 -245 60 -448 189 -640 58 -87 207 -238
287 -292 126 -84 307 -158 455 -183 84 -15 308 -15 391 0 445 79 800 402 908
825 68 269 42 520 -79 770 -65 133 -116 206 -217 309 -169 172 -369 282 -593
325 -124 23 -240 31 -330 21z m216 -807 c212 -71 300 -323 178 -510 -85 -129
-254 -186 -395 -134 -110 42 -171 105 -209 221 -54 160 27 343 183 416 64 29
168 33 243 7z"/>
<path d="M1258 6958 c-48 -13 -113 -70 -140 -122 -28 -55 -36 -167 -15 -219
24 -57 66 -105 116 -135 39 -23 58 -27 121 -27 64 0 82 4 124 29 29 17 59 45
75 71 14 24 34 48 43 54 9 6 66 18 125 28 134 22 713 27 720 6 12 -34 54 -81
93 -103 35 -19 59 -24 112 -24 59 0 73 4 109 29 85 60 112 177 66 278 -21 46
-34 61 -79 86 -108 62 -232 22 -286 -92 l-21 -44 -233 5 c-192 3 -264 0 -412
-17 -99 -11 -180 -20 -181 -18 -1 1 -10 25 -20 52 -45 126 -186 198 -317 163z
m168 -139 c50 -47 66 -116 39 -168 -43 -85 -143 -109 -209 -51 -77 68 -69 177
17 231 43 27 117 21 153 -12z"/>
<path d="M7497 6722 c-8 -9 -25 -36 -37 -59 -12 -23 -64 -113 -116 -200 -52
-87 -95 -162 -97 -168 -2 -6 -35 1 -78 15 -41 13 -92 24 -114 23 -56 -2 -147
-38 -177 -71 -32 -35 -102 -139 -158 -237 -78 -135 -90 -158 -85 -164 6 -10
254 -131 268 -131 4 0 40 -15 80 -34 129 -60 182 -84 238 -106 29 -12 58 -25
64 -30 11 -9 138 -61 140 -57 1 1 15 25 32 52 68 110 145 263 158 313 17 63 7
136 -26 189 -20 33 -104 106 -131 115 -11 4 9 46 97 203 112 200 136 247 133
262 -2 8 -34 32 -73 52 -97 51 -101 52 -118 33z m-391 -596 c85 -30 273 -126
288 -148 25 -36 21 -104 -9 -133 -13 -14 -31 -25 -39 -25 -9 0 -60 20 -113 43
-54 24 -140 61 -190 82 -53 22 -95 46 -98 56 -13 41 58 139 101 139 12 0 39
-6 60 -14z"/>
<path d="M2098 6483 c-48 -4 -48 -4 -48 -41 0 -20 4 -71 10 -112 6 -41 19
-141 30 -223 17 -121 88 -438 102 -452 3 -3 97 24 106 30 1 1 -16 76 -38 166
-37 151 -68 343 -85 529 -7 84 -13 111 -23 108 -4 -1 -28 -3 -54 -5z"/>
<path d="M8154 6161 c-25 -150 -54 -279 -85 -386 -96 -326 -229 -618 -406
-887 -138 -212 -410 -519 -593 -670 -148 -122 -291 -225 -449 -323 -54 -33
-367 -190 -399 -200 -18 -5 -21 -11 -16 -28 10 -35 33 -87 37 -87 13 0 151 62
257 115 535 269 967 654 1304 1164 100 152 215 381 290 579 89 233 208 697
187 730 -3 5 -32 14 -63 19 l-58 10 -6 -36z"/>
<path d="M6527 5688 c-75 -142 -86 -164 -86 -176 -1 -7 16 -20 37 -28 72 -30
358 -156 418 -185 33 -16 64 -29 67 -29 8 0 145 -62 211 -95 27 -14 51 -24 52
-22 1 1 30 53 64 116 51 94 60 116 48 127 -7 7 -69 38 -138 69 -69 31 -143 65
-165 75 -108 49 -305 136 -428 188 l-47 21 -33 -61z"/>
<path d="M2635 5653 c-107 -14 -190 -38 -280 -83 -204 -100 -327 -236 -414
-455 -44 -111 -74 -272 -69 -371 l3 -59 51 -3 52 -3 7 78 c28 306 128 504 334
656 67 50 195 102 282 117 148 23 355 5 446 -39 23 -12 46 -21 51 -21 26 0
165 -105 226 -171 85 -91 147 -214 172 -339 20 -100 14 -301 -11 -391 -67
-247 -268 -454 -523 -540 -48 -16 -107 -31 -131 -32 l-45 -2 -8 42 c-7 30 -22
55 -53 87 -154 154 -404 1 -344 -211 16 -60 89 -137 138 -146 96 -19 151 -3
224 68 38 37 52 45 84 45 21 0 56 5 78 11 349 93 601 323 692 632 22 76 28
117 31 238 3 130 1 155 -22 246 -71 281 -227 465 -496 584 -128 56 -323 82
-475 62z"/>
<path d="M6306 5285 c-56 -104 -66 -135 -45 -135 6 0 48 -17 93 -38 44 -21 97
-45 116 -52 19 -7 40 -17 46 -21 6 -5 42 -20 80 -35 38 -14 74 -29 79 -33 6
-4 26 -14 45 -21 19 -7 62 -25 95 -41 33 -15 96 -43 140 -63 l79 -35 19 27
c22 33 107 199 107 210 0 8 -22 18 -170 83 -52 22 -113 49 -135 59 -22 11 -89
40 -150 65 -60 26 -137 60 -170 75 -95 44 -136 60 -155 60 -13 0 -35 -32 -74
-105z"/>
<path d="M2382 5327 c-28 -17 -33 -24 -27 -46 20 -79 171 -375 268 -521 126
-192 236 -323 415 -495 l52 -49 41 40 40 40 -97 95 c-156 153 -305 347 -441
574 -44 75 -156 298 -173 347 -15 41 -29 44 -78 15z"/>
<path d="M6157 4978 c-39 -77 -67 -166 -67 -209 0 -58 37 -145 78 -186 21 -20
80 -56 132 -80 52 -25 115 -55 140 -68 75 -39 157 -58 225 -53 110 9 158 49
250 213 31 54 54 99 53 101 -3 3 -97 46 -248 114 -52 23 -118 53 -147 66 -28
13 -54 24 -58 24 -3 0 -34 13 -68 29 -96 45 -236 101 -250 101 -8 0 -26 -24
-40 -52z"/>
<path d="M1966 4616 c-49 -18 -91 -58 -117 -114 -31 -62 -23 -158 18 -216 87
-125 284 -111 354 26 42 83 35 156 -24 241 -41 59 -156 91 -231 63z"/>
<path d="M4470 4431 c-172 -19 -329 -147 -388 -314 -21 -64 -24 -84 -20 -172
3 -62 12 -117 23 -145 48 -120 171 -225 301 -256 84 -19 225 -15 297 11 116
40 212 126 268 240 33 67 34 74 34 185 0 130 -10 164 -76 261 -67 99 -180 167
-314 189 -33 5 -62 9 -65 8 -3 0 -30 -4 -60 -7z m148 -133 c83 -20 162 -82
212 -164 34 -56 35 -62 35 -154 0 -89 -2 -98 -33 -152 -38 -66 -82 -107 -155
-146 -48 -25 -61 -27 -162 -27 -105 0 -112 1 -165 32 -61 35 -105 78 -141 138
-21 35 -24 52 -24 145 0 97 2 109 28 153 32 54 97 121 142 145 68 36 184 50
263 30z"/>
<path d="M6195 4388 c-46 -63 -262 -411 -290 -468 -18 -36 -40 -99 -50 -140
-19 -86 -79 -263 -135 -395 -58 -140 -64 -162 -47 -179 13 -13 20 -5 58 65 77
140 168 260 304 399 96 98 152 166 207 250 41 63 111 169 154 235 43 66 80
123 82 127 4 9 -241 128 -264 128 -1 0 -10 -10 -19 -22z"/>
<path d="M3436 4041 l-37 -38 63 -55 c35 -30 102 -82 150 -115 94 -65 290
-158 314 -149 10 4 14 21 14 56 l0 51 -82 39 c-127 59 -209 111 -324 207 -28
24 -53 43 -56 43 -2 0 -21 -17 -42 -39z"/>
<path d="M5440 3559 c-117 -25 -317 -27 -440 -6 -88 15 -110 14 -110 -8 0 -7
-11 -28 -23 -47 l-24 -34 81 -20 c115 -27 453 -26 571 2 l80 19 3 58 c4 68 9
66 -138 36z"/>
<path d="M5655 3169 c-11 -17 1 -21 15 -4 8 9 8 15 2 15 -6 0 -14 -5 -17 -11z"/>
<path d="M4475 2666 c-5 -3 -31 -7 -57 -11 -94 -12 -192 -101 -234 -210 -18
-47 -19 -80 -19 -485 l0 -435 39 -72 c40 -77 77 -111 154 -146 38 -17 67 -21
147 -21 131 -1 196 19 263 79 103 93 115 161 109 648 -3 242 -8 378 -16 410
-25 96 -122 199 -214 227 -43 13 -154 23 -172 16z m124 -233 c56 -42 60 -74
60 -463 1 -229 -3 -369 -10 -395 -6 -21 -26 -54 -44 -72 -28 -28 -40 -33 -81
-33 -31 0 -61 7 -82 20 -61 37 -62 48 -62 472 0 364 1 384 20 424 26 53 69 76
129 70 24 -2 55 -13 70 -23z"/>
<path d="M5350 2664 c-57 -9 -104 -27 -154 -59 -131 -83 -165 -309 -72 -475
40 -72 92 -126 201 -210 167 -129 224 -206 225 -300 0 -94 -57 -150 -154 -150
-45 0 -53 4 -91 44 -41 43 -65 101 -65 160 0 14 -3 26 -7 26 -25 0 -189 -34
-196 -40 -10 -9 6 -99 30 -174 18 -57 88 -138 143 -166 55 -28 153 -44 233
-37 90 8 129 21 193 64 41 27 59 49 85 101 32 62 34 72 34 172 0 100 -2 109
-36 180 -44 92 -106 160 -258 283 -139 112 -173 156 -179 232 -6 74 10 110 59
129 49 20 72 20 109 1 36 -19 67 -69 76 -123 8 -48 5 -47 117 -30 l77 11 0 46
c0 97 -38 181 -112 245 -67 58 -162 84 -258 70z"/>
<path d="M9236 2659 c-125 -18 -230 -131 -257 -273 -6 -35 -9 -209 -7 -459 l3
-402 35 -68 c63 -124 151 -172 310 -172 52 0 114 6 137 13 71 21 133 72 170
139 48 88 55 175 51 608 -5 398 -4 395 -72 488 -47 64 -106 102 -189 122 -68
16 -94 17 -181 4z m154 -219 c64 -32 65 -42 65 -485 0 -352 -2 -393 -17 -422
-26 -47 -55 -63 -115 -63 -47 0 -58 4 -91 34 l-37 34 -3 406 c-3 449 -2 458
60 496 42 25 88 25 138 0z"/>
<path d="M666 2651 c-3 -5 1 -40 10 -78 8 -37 24 -115 35 -173 10 -58 26 -134
34 -170 9 -36 27 -123 40 -195 14 -71 41 -206 60 -300 19 -93 42 -206 50 -250
9 -44 20 -104 26 -132 l10 -53 115 0 c136 0 120 -20 164 204 16 83 45 228 64
321 20 94 49 238 66 320 36 179 96 474 101 495 3 13 -15 15 -112 18 l-116 3
-11 -43 c-6 -24 -18 -99 -27 -168 -9 -69 -23 -159 -30 -200 -8 -41 -26 -154
-40 -250 -28 -194 -45 -280 -55 -280 -4 0 -17 69 -29 153 -13 83 -29 188 -37
232 -8 44 -28 168 -44 275 -17 107 -34 213 -38 235 l-7 40 -112 3 c-63 1 -114
-2 -117 -7z"/>
<path d="M1617 2654 c-4 -4 -7 -310 -7 -681 l0 -674 110 3 110 3 1 600 c1 330
1 634 0 675 l-1 75 -103 3 c-56 2 -106 0 -110 -4z"/>
<path d="M2065 2652 c-3 -3 -5 -308 -5 -679 l0 -673 105 0 105 0 0 390 c0 215
4 390 8 390 5 0 14 -19 21 -42 7 -24 19 -56 27 -73 7 -16 26 -66 42 -110 59
-162 154 -411 167 -440 7 -16 18 -49 25 -73 l11 -43 102 3 102 3 0 675 0 675
-107 3 -108 3 0 -400 c0 -221 -4 -401 -8 -401 -5 0 -16 26 -26 58 -10 31 -24
71 -32 87 -7 17 -22 55 -33 85 -11 30 -39 105 -61 165 -23 61 -54 146 -70 190
-16 44 -40 109 -53 145 l-25 65 -91 1 c-50 1 -93 -1 -96 -4z"/>
<path d="M2980 2655 c0 0 0 -1332 0 -1342 0 -10 29 -13 110 -13 l110 0 0 680
0 681 -110 -3 c-60 -1 -110 -3 -110 -3z"/>
<path d="M3444 2647 c-2 -7 -3 -311 -2 -677 l3 -665 303 -3 302 -2 0 90 0 90
-192 2 -193 3 -3 587 -2 587 -106 0 c-71 0 -107 -4 -110 -12z"/>
<path d="M5806 2652 c-3 -3 -6 -50 -6 -104 l0 -98 140 0 140 0 0 -575 0 -575
110 0 110 0 0 575 0 575 130 0 130 0 0 103 0 102 -374 2 c-206 1 -377 -1 -380
-5z"/>
<path d="M6722 2083 c3 -563 4 -579 24 -624 65 -141 210 -202 402 -169 109 18
184 72 226 159 l31 66 0 570 0 570 -105 0 -105 0 -5 -550 c-5 -519 -6 -552
-24 -582 -24 -38 -54 -53 -109 -53 -46 0 -79 18 -99 53 -10 17 -14 157 -18
577 l-5 555 -108 3 -108 3 3 -578z"/>
<path d="M7630 1979 l0 -681 218 4 217 3 65 31 c90 42 124 75 159 148 47 100
51 141 48 521 l-3 350 -28 72 c-38 96 -81 144 -162 183 -80 38 -148 47 -356
49 l-158 2 0 -682z m418 445 c15 -11 36 -38 47 -60 19 -36 20 -62 23 -361 4
-384 -1 -421 -58 -478 l-40 -39 -87 -1 -88 0 -3 484 -2 483 90 -4 c70 -3 96
-9 118 -24z"/>
<path d="M8566 2653 c-3 -4 -6 -309 -6 -680 l0 -674 108 3 107 3 2 664 c2 466
-1 669 -8 678 -8 9 -39 13 -104 12 -51 0 -96 -3 -99 -6z"/>
<path d="M3452 869 c-48 -14 -107 -78 -127 -139 -21 -64 -16 -124 17 -188 84
-163 341 -143 393 31 20 68 19 106 -5 171 -42 111 -153 161 -278 125z m150
-85 c69 -35 93 -162 42 -224 -73 -86 -183 -76 -236 23 -31 55 -17 150 25 186
47 38 111 44 169 15z"/>
<path d="M4008 870 c-42 -13 -97 -61 -118 -106 -26 -54 -27 -163 -1 -219 36
-81 118 -122 219 -112 66 7 107 31 149 85 89 117 33 302 -106 350 -38 13 -103
14 -143 2z m115 -74 c56 -24 88 -67 93 -127 16 -165 -182 -235 -256 -90 -53
104 8 218 123 230 4 1 22 -5 40 -13z"/>
<path d="M4740 869 c-65 -26 -85 -84 -52 -148 l21 -39 -40 -41 c-33 -36 -39
-48 -39 -86 0 -32 7 -51 26 -74 51 -61 166 -67 219 -11 l29 30 31 -30 c32 -31
85 -46 111 -32 10 6 1 21 -36 57 -28 27 -50 55 -50 62 0 6 16 38 35 70 44 73
44 83 1 83 -30 0 -37 -5 -59 -47 -13 -26 -28 -48 -33 -49 -5 -2 -20 10 -32 27
l-24 29 31 36 c33 37 41 87 20 126 -21 39 -104 59 -159 37z m95 -69 c16 -18
17 -23 5 -46 -23 -42 -48 -50 -76 -23 -28 26 -31 51 -8 73 21 22 57 20 79 -4z
m-11 -209 l48 -48 -30 -22 c-84 -59 -180 13 -117 87 15 18 32 32 39 32 6 0 33
-22 60 -49z"/>
<path d="M7209 870 c-40 -12 -85 -49 -116 -94 -25 -36 -28 -50 -28 -122 0 -76
2 -84 35 -133 19 -28 51 -59 70 -69 47 -23 163 -23 207 1 29 15 83 80 83 99 0
3 -14 10 -32 13 -24 6 -35 3 -47 -12 -70 -85 -202 -62 -231 41 -25 90 2 164
74 200 32 16 44 17 76 7 21 -6 50 -25 64 -41 26 -32 45 -37 77 -20 27 15 24
25 -21 74 -54 59 -133 80 -211 56z"/>
<path d="M8522 869 c-44 -13 -116 -86 -132 -133 -20 -62 -9 -156 26 -212 42
-70 97 -97 184 -91 125 9 180 59 183 169 l2 63 -93 3 -93 3 3 -33 c3 -32 4
-33 50 -33 25 0 49 -3 53 -7 15 -15 -7 -59 -38 -78 -44 -27 -99 -25 -146 4
-44 28 -61 66 -61 133 0 66 24 108 76 133 54 26 91 20 140 -22 27 -24 39 -28
64 -23 16 4 32 11 35 16 3 4 -12 28 -34 52 -57 62 -132 81 -219 56z"/>
<path d="M1620 832 l0 -37 63 0 62 0 5 -180 c3 -99 8 -179 13 -177 4 1 21 2
37 2 l30 0 0 180 0 180 65 0 65 0 0 35 0 35 -170 0 -170 0 0 -38z"/>
<path d="M2136 768 c-22 -57 -59 -151 -83 -210 -23 -59 -43 -111 -43 -115 0
-6 37 -8 83 -4 4 1 7 7 7 15 0 8 9 35 20 60 l19 46 81 0 81 0 27 -60 c27 -59
27 -59 71 -60 33 0 41 3 34 13 -6 6 -23 46 -38 87 -15 41 -32 80 -36 86 -5 6
-18 35 -28 65 -11 30 -31 81 -45 114 -25 59 -25 60 -68 63 l-43 2 -39 -102z
m114 -60 c14 -35 27 -66 28 -70 2 -5 -21 -8 -52 -8 -31 0 -56 4 -56 10 0 8 8
35 35 118 8 24 21 11 45 -50z"/>
<path d="M2480 832 l0 -37 63 0 62 0 3 -180 2 -181 35 0 35 0 2 181 3 180 65
1 65 1 3 37 3 36 -170 0 -171 0 0 -38z"/>
<path d="M2890 835 l0 -34 63 -3 62 -3 3 -181 2 -181 38 2 37 3 3 181 2 181
70 0 70 0 0 35 0 35 -175 0 -175 0 0 -35z"/>
<path d="M5420 868 c0 -2 -1 -99 -3 -216 l-2 -212 40 0 40 0 0 72 0 73 81 5
c68 4 86 9 117 33 40 31 63 89 52 137 -8 37 -52 86 -88 100 -24 8 -237 15
-237 8z m219 -87 c16 -9 21 -21 21 -51 0 -54 -28 -72 -107 -68 l-58 3 -3 54
c-5 81 -1 85 67 78 32 -2 68 -10 80 -16z"/>
<path d="M5902 653 l3 -217 35 0 35 -1 3 218 2 217 -40 0 -40 0 2 -217z"/>
<path d="M6160 660 c0 -115 0 -213 0 -216 0 -3 64 -6 143 -6 l142 1 0 33 0 33
-105 0 -105 0 -3 58 -3 57 96 0 96 0 -3 33 -3 32 -93 3 -93 3 3 52 3 52 105 1
105 2 3 36 3 36 -145 0 -146 0 0 -210z"/>
<path d="M6600 655 l0 -215 40 0 40 0 0 80 0 80 33 0 c37 0 51 -13 111 -102
37 -56 40 -58 82 -58 24 0 44 3 44 6 0 3 -25 40 -55 82 -50 69 -54 78 -38 87
39 23 72 64 79 101 6 30 2 47 -17 83 -31 58 -63 69 -206 70 l-113 1 0 -215z
m242 115 c21 -26 16 -56 -14 -82 -15 -13 -38 -18 -84 -18 l-64 0 0 58 c0 32 3
62 8 66 4 5 36 6 72 3 51 -4 68 -10 82 -27z"/>
<path d="M7602 653 l3 -218 35 1 35 0 3 217 2 217 -40 0 -40 0 2 -217z"/>
<path d="M7863 655 l-2 -215 39 0 39 0 3 148 3 147 65 -95 c35 -52 80 -119 98
-147 25 -38 41 -53 58 -53 12 0 29 -3 38 -6 14 -5 16 17 16 215 l0 221 -35 0
-34 0 -3 -152 -3 -152 -100 150 c-99 148 -100 149 -140 152 l-40 3 -2 -216z"/>
</g>
</svg>
